Coordinates
version=1
nRows=18
nColumns=22
inDegrees=yes

Units are S.I. units (second, meters, Newtons, ...)
If the header above contains a line with 'inDegrees', this indicates whether rotational values are in degrees (yes) or radians (no).

endheader
time	pelvis_tilt	pelvis_list	pelvis_rotation	pelvis_tx	pelvis_ty	pelvis_tz	hip_flexion_r	hip_adduction_r	hip_rotation_r	knee_angle_r	ankle_angle_r	subtalar_angle_r	hip_flexion_l	hip_adduction_l	hip_rotation_l	knee_angle_l	ankle_angle_l	subtalar_angle_l	lumbar_extension	lumbar_bending	lumbar_rotation
      0.01000000	    -14.71537571	     -2.12728994	     -4.16186607	     -0.55504759	      0.97814415	      0.40736239	     20.71544487	      2.83464734	     -5.27070391	    -15.36267237	     15.07208218	     -5.46245831	     22.07750521	     -5.19108514	     -7.60426025	    -17.86641306	     17.39604775	      0.41999916	      7.22658988	      4.23397100	      4.37784329
      0.02000000	    -14.71408006	     -2.15498190	     -4.15689747	     -0.55505398	      0.97814739	      0.40735625	     20.70298989	      2.86363857	     -5.25944073	    -15.34587088	     15.04161644	     -5.45911704	     22.10103266	     -5.22412994	     -7.61871307	    -17.91312787	     17.38801035	      0.40051130	      7.21290365	      4.26333409	      4.36407510
      0.03000000	    -14.71751759	     -2.15679165	     -4.15775372	     -0.55503623	      0.97814546	      0.40734333	     20.70473910	      2.86425407	     -5.26034269	    -15.34432022	     15.04087596	     -5.45927548	     22.10271226	     -5.22539757	     -7.61752849	    -17.91098881	     17.39054701	      0.39951888	      7.20786950	      4.26393797	      4.36568202
      0.04000000	    -14.72014110	     -2.15952864	     -4.15750636	     -0.55502461	      0.97814360	      0.40732484	     20.70675441	      2.86498660	     -5.26017628	    -15.34490658	     15.03870359	     -5.45953066	     22.10614703	     -5.22708507	     -7.61493834	    -17.91225828	     17.39429681	      0.39783739	      7.19997661	      4.26469983	      4.37051834
      0.05000000	    -14.71815174	     -2.16551309	     -4.16010312	     -0.55501848	      0.97814298	      0.40730736	     20.70842801	      2.86959597	     -5.25712436	    -15.35461299	     15.02912787	     -5.46035735	     22.11306247	     -5.23287223	     -7.60576951	    -17.93303580	     17.40614481	      0.39107104	      7.18631189	      4.26818071	      4.38891733
      0.06000000	    -14.72150137	     -2.16730437	     -4.16096547	     -0.55500134	      0.97814129	      0.40728087	     20.71006389	      2.86928716	     -5.25696991	    -15.35321094	     15.02853981	     -5.46044733	     22.11594805	     -5.23327990	     -7.60633588	    -17.93299706	     17.40737110	      0.39023592	      7.17955417	      4.26855132	      4.39038607
      0.07000000	    -14.72442223	     -2.16906788	     -4.16262200	     -0.55499437	      0.97813933	      0.40724766	     20.71220570	      2.86875081	     -5.25605770	    -15.35198961	     15.02691242	     -5.46033816	     22.12078779	     -5.23353936	     -7.60596859	    -17.93686876	     17.40913734	      0.38896462	      7.16965199	      4.26928664	      4.39530208
      0.08000000	    -14.72240662	     -2.17295895	     -4.16743300	     -0.55499942	      0.97813906	      0.40721762	     20.71241513	      2.87146977	     -5.24849459	    -15.35726212	     15.01728865	     -5.45878768	     22.13287271	     -5.23804516	     -7.60308282	    -17.96695439	     17.41631918	      0.38326505	      7.15317151	      4.26998867	      4.41994758
      0.09000000	    -14.72640031	     -2.17464291	     -4.17066029	     -0.55498687	      0.97813672	      0.40717713	     20.71472250	      2.87070640	     -5.24807962	    -15.35466720	     15.01661637	     -5.45852882	     22.13625220	     -5.23826019	     -7.60407571	    -17.96702761	     17.41753250	      0.38255871	      7.14545917	      4.27090036	      4.42122249
      0.10000000	    -14.72782301	     -2.17889548	     -4.17843480	     -0.55499473	      0.97813369	      0.40714066	     20.71573812	      2.87477734	     -5.23538521	    -15.35352903	     15.00498902	     -5.45481209	     22.15092267	     -5.24422263	     -7.60785475	    -17.99548259	     17.42606040	      0.37622841	      7.12998014	      4.27354693	      4.44143372
      0.11000000	    -14.73241799	     -2.18089825	     -4.18249853	     -0.55498478	      0.97813153	      0.40708632	     20.71778697	      2.87347777	     -5.23468358	    -15.35021186	     15.00435252	     -5.45448830	     22.15500994	     -5.24396239	     -7.60869839	    -17.99473852	     17.42698758	      0.37572086	      7.12174213	      4.27429752	      4.44140608
      0.12000000	    -14.73495077	     -2.18388922	     -4.18790357	     -0.55499615	      0.97812969	      0.40702794	     20.71706522	      2.87523891	     -5.21401678	    -15.34382960	     14.99046088	     -5.45078256	     22.17081839	     -5.24594818	     -7.61040726	    -18.02204928	     17.43309841	      0.37065244	      7.10583065	      4.27527594	      4.44697530
      0.13000000	    -14.74036500	     -2.18648714	     -4.19160494	     -0.55498835	      0.97812801	      0.40696043	     20.71896510	      2.87345188	     -5.21248944	    -15.33985446	     14.98935186	     -5.45051552	     22.17569156	     -5.24562069	     -7.61105690	    -18.02087991	     17.43397617	      0.37014323	      7.09617042	      4.27548708	      4.44588136
      0.14000000	    -14.74243783	     -2.18752421	     -4.19343110	     -0.55499872	      0.97813011	      0.40688001	     20.71562820	      2.87096174	     -5.18815561	    -15.33099954	     14.97379566	     -5.44813845	     22.18964887	     -5.24297204	     -7.60979496	    -18.04324447	     17.43815849	      0.36572255	      7.07910000	      4.27364089	      4.43568666
      0.15000000	    -14.74801126	     -2.18999502	     -4.19741844	     -0.55499442	      0.97812977	      0.40679714	     20.71768961	      2.86872286	     -5.18679921	    -15.32587358	     14.97250770	     -5.44798179	     22.19447564	     -5.24124330	     -7.61004500	    -18.04172976	     17.43887844	      0.36512851	      7.06793665	      4.27321258	      4.43302916
      0.16000000	    -14.75284896	     -2.19113208	     -4.20209902	     -0.55499430	      0.97813000	      0.40670330	     20.71954503	      2.86491959	     -5.18398646	    -15.32001066	     14.97033595	     -5.44766634	     22.19955967	     -5.23749210	     -7.60974602	    -18.04228206	     17.43968456	      0.36432140	      7.05513579	      4.27249235	      4.42763780
      0.17000000	    -14.74875075	     -2.18324068	     -4.19777726	     -0.55499803	      0.97814142	      0.40659178	     20.70983125	      2.85043134	     -5.16143669	    -15.30976194	     14.95461681	     -5.44487010	     22.20534119	     -5.22117488	     -7.60674992	    -18.05968457	     17.44268110	      0.35801302	      7.03284439	      4.25836737	      4.39534161
      0.18000000	    -14.75320742	     -2.18503356	     -4.20340555	     -0.55499102	      0.97814124	      0.40649046	     20.71195363	      2.84738911	     -5.16229498	    -15.30461456	     14.95453927	     -5.44467891	     22.20799241	     -5.21771293	     -7.60657388	    -18.05706485	     17.44296827	      0.35731678	      7.02197900	      4.25740792	      4.39219750
